<svg width="23" height="21" viewBox="0 0 23 21" fill="none" xmlns="http://www.w3.org/2000/svg">
<path d="M17.6993 20.7148L14.8327 17.7428L16.0419 16.5936L17.6993 18.1688L21.4415 14.6123L22.6506 16.0091L17.6993 20.7148ZM9.6208 13.6216H11.7056V15.603H9.6208V13.6216ZM9.6208 5.69635H11.7056V11.6403H9.6208V5.69635ZM10.6632 0.743042C16.3963 0.743042 21.087 5.20102 21.087 10.6496L21.0037 11.9474C20.3678 11.7493 19.7007 11.6403 18.9397 11.6403L19.0023 10.6496C19.0023 6.27093 15.2705 2.72436 10.6632 2.72436C6.05585 2.72436 2.32411 6.27093 2.32411 10.6496C2.32411 15.0284 6.05585 18.5749 10.6632 18.5749C11.4033 18.5749 12.1121 18.4858 12.8001 18.3174C12.8835 18.991 13.0919 19.625 13.3942 20.2095C12.5186 20.4374 11.6013 20.5563 10.6632 20.5563C4.8988 20.5563 0.239334 16.0983 0.239334 10.6496C0.239334 5.20102 4.8988 0.743042 10.6632 0.743042Z" fill="#F68D2B"/>
</svg>
