<svg width="33" height="36" viewBox="0 0 33 36" fill="none" xmlns="http://www.w3.org/2000/svg">
<path d="M23.1042 35.0833L17.1875 29.1667L19.1321 27.2221L23.0625 31.1529L30.5346 23.6804L32.4792 25.6667L23.1042 35.0833ZM7.65958 25.7221L5.71541 23.7779L8.57624 20.9167L5.71541 18.0554L7.65958 16.1113L10.5208 18.9721L13.3821 16.1113L15.3262 18.0554L12.4654 20.9167L15.3262 23.7779L13.3821 25.7221L10.5208 22.8613L7.65958 25.7221ZM3.29874 34.25C2.54874 34.25 1.89819 33.9746 1.34708 33.4238C0.796245 32.8726 0.520828 32.2221 0.520828 31.4721V6.47209C0.520828 5.72209 0.796245 5.07167 1.34708 4.52084C1.89819 3.97001 2.54874 3.69459 3.29874 3.69459H5.65958V0.916672H8.57624V3.69459H22.4654V0.916672H25.3821V3.69459H27.7429C28.4929 3.69459 29.1435 3.97001 29.6946 4.52084C30.2454 5.07167 30.5208 5.72209 30.5208 6.47209V19.7779L27.7429 22.5696V13.9721H3.29874V31.4721H15.5762L18.3404 34.25H3.29874Z" fill="#AD46FF"/>
</svg>
