<svg width="23" height="21" viewBox="0 0 23 21" fill="none" xmlns="http://www.w3.org/2000/svg">
<path d="M10.9411 4.7904V0.827759H0.517273V18.6597H12.3483C12.1051 18.0247 11.9816 17.354 11.9835 16.6783H10.9411V14.697H12.3483C12.5061 14.2352 12.7343 13.7979 13.0259 13.3992V12.7157H10.9411V10.7344H13.0259V8.75305H10.9411V6.77172H19.2802V10.8235C20.0168 10.9321 20.7246 11.1743 21.365 11.5368V4.7904M4.68682 16.6783H2.60204V14.697H4.68682M4.68682 12.7157H2.60204V10.7344H4.68682M4.68682 8.75305H2.60204V6.77172H4.68682M4.68682 4.7904H2.60204V2.80908H4.68682M8.85636 16.6783H6.77159V14.697H8.85636M8.85636 12.7157H6.77159V10.7344H8.85636M8.85636 8.75305H6.77159V6.77172H8.85636M8.85636 4.7904H6.77159V2.80908H8.85636M15.1107 10.7344H17.1954V8.75305H15.1107M15.1107 8.75305V10.7344H17.1954V8.75305M15.1107 8.75305V10.7344H17.1954V8.75305M19.2802 12.7157V15.6877H22.4074V17.669H19.2802V20.641H17.1954V17.669H14.0683V15.6877H17.1954V12.7157H19.2802Z" fill="#1595D4"/>
</svg>
