<svg width="29" height="32" viewBox="0 0 29 32" fill="none" xmlns="http://www.w3.org/2000/svg">
<path d="M5.75 26.6667H7.5V24H21.5V26.6667H23.25V19.5556C23.25 18.5778 22.9073 17.7407 22.2219 17.0444C21.5365 16.3481 20.7125 16 19.75 16H13.625V22.2222H7.5V14.2222H5.75V26.6667ZM10.5625 21.3333C11.175 21.3333 11.6927 21.1185 12.1156 20.6889C12.5385 20.2593 12.75 19.7333 12.75 19.1111C12.75 18.4889 12.5385 17.963 12.1156 17.5333C11.6927 17.1037 11.175 16.8889 10.5625 16.8889C9.95 16.8889 9.43229 17.1037 9.00937 17.5333C8.58646 17.963 8.375 18.4889 8.375 19.1111C8.375 19.7333 8.58646 20.2593 9.00937 20.6889C9.43229 21.1185 9.95 21.3333 10.5625 21.3333ZM0.5 32V10.6667L14.5 0L28.5 10.6667V32H0.5Z" fill="#AD46FF"/>
</svg>
