<svg width="26" height="25" viewBox="0 0 26 25" fill="none" xmlns="http://www.w3.org/2000/svg">
<path d="M20.9584 4.81775C22.1155 4.81775 23.0432 5.69944 23.0432 6.79907V18.687C23.0432 19.7866 22.1155 20.6683 20.9584 20.6683H4.28024C3.12319 20.6683 2.19547 19.7866 2.19547 18.687V6.79907C2.19547 5.69944 3.12319 4.81775 4.28024 4.81775H20.9584ZM8.97097 15.715V9.77105H7.66799V13.2384L5.06203 9.77105H3.75904V15.715H5.06203V12.2477L7.72011 15.715H8.97097ZM14.1829 11.0193V9.77105H10.0134V15.715H14.1829V14.4767H11.5769V13.3771H14.1829V12.1288H11.5769V11.0193H14.1829ZM21.4796 14.7244V9.77105H20.1766V14.229H19.0091V10.7617H17.7062V14.229H16.5283V9.77105H15.2253V14.7244C15.2253 14.9871 15.3351 15.2391 15.5306 15.4249C15.7261 15.6106 15.9912 15.715 16.2677 15.715H20.4372C20.7137 15.715 20.9788 15.6106 21.1743 15.4249C21.3698 15.2391 21.4796 14.9871 21.4796 14.7244Z" fill="#88417A"/>
</svg>
